<svg width="46" height="46" viewBox="0 0 46 46" fill="none" xmlns="http://www.w3.org/2000/svg">
<path d="M40.25 8.625H25.875V5.75C25.875 4.9875 25.5721 4.25623 25.0329 3.71707C24.4938 3.1779 23.7625 2.875 23 2.875H5.75C4.9875 2.875 4.25623 3.1779 3.71707 3.71707C3.1779 4.25623 2.875 4.9875 2.875 5.75V34.5C2.875 35.2625 3.1779 35.9938 3.71707 36.5329C4.25623 37.0721 4.9875 37.375 5.75 37.375H20.125V40.25C20.125 41.0125 20.4279 41.7438 20.9671 42.2829C21.5062 42.8221 22.2375 43.125 23 43.125H40.25C41.0125 43.125 41.7438 42.8221 42.2829 42.2829C42.8221 41.7438 43.125 41.0125 43.125 40.25V11.5C43.125 10.7375 42.8221 10.0062 42.2829 9.46707C41.7438 8.9279 41.0125 8.625 40.25 8.625ZM5.75 21.5625H14.6194L10.9106 25.2856L12.9375 27.3125L20.125 20.125L12.9375 12.9375L10.9106 14.9644L14.6194 18.6875H5.75V5.75H23V34.5H5.75V21.5625ZM23 40.25V37.375C23.7625 37.375 24.4938 37.0721 25.0329 36.5329C25.5721 35.9938 25.875 35.2625 25.875 34.5V11.5H40.25V24.4375H31.3806L35.0894 20.7144L33.0625 18.6875L25.875 25.875L33.0625 33.0625L35.0894 31.0356L31.3806 27.3125H40.25V40.25H23Z" fill="#374D67"/>
</svg>
