<svg width="46" height="46" viewBox="0 0 46 46" fill="none" xmlns="http://www.w3.org/2000/svg">
<path d="M6.875 14.5557V20.1484H4V11.3662L11.8613 7.41309L13.1416 9.99609L8.64941 12.2422L13.1641 14.4883L11.8613 17.0713L6.875 14.5557ZM21.25 5.93066L16.2637 8.44629L14.9834 5.86328L22.6875 2L30.3916 5.86328L29.1113 8.44629L24.125 5.93066V12.9609H21.25V5.93066ZM24.125 40.1162L29.1113 37.6006L30.4141 40.1836L22.6875 44.0469L14.9834 40.1836L16.2637 37.6006L21.25 40.1162V33.0859H24.125V40.1162ZM12.5801 28.6162L13.9053 31.1768L8.64941 33.8047L13.1416 36.0508L11.8613 38.6338L4 34.6807V25.8984H6.875V31.4912L12.5801 28.6162ZM22.6875 19.25L29.1113 16.0381L30.4141 18.6211L24.125 21.7656V28.7734H21.25V21.7656L14.9834 18.6211L16.2637 16.0381L22.6875 19.25ZM33.5137 7.41309L41.375 11.3662V20.1484H38.5V14.5557L33.5137 17.0713L32.2334 14.4883L36.7256 12.2422L32.2334 9.99609L33.5137 7.41309ZM38.5 31.4912V25.8984H41.375V34.6807L33.5137 38.6338L32.2334 36.0508L36.7256 33.8047L31.4697 31.1768L32.7949 28.6162L38.5 31.4912Z" fill="#374D67"/>
</svg>
