<svg width="46" height="46" viewBox="0 0 46 46" fill="none" xmlns="http://www.w3.org/2000/svg">
<path d="M30.705 33.7525C27.2388 36.443 22.8776 37.7114 18.5091 37.2997C14.1407 36.8879 10.0933 34.8269 7.19088 31.5361C4.28847 28.2453 2.74919 23.9722 2.88637 19.5865C3.02355 15.2008 4.82688 11.0322 7.92928 7.92928C11.0322 4.82688 15.2008 3.02355 19.5865 2.88637C23.9722 2.74919 28.2453 4.28847 31.5361 7.19088C34.8269 10.0933 36.8879 14.1407 37.2997 18.5091C37.7114 22.8776 36.443 27.2388 33.7525 30.705L42.4925 39.445C42.7764 39.7086 42.9839 40.0438 43.0931 40.4154C43.2024 40.787 43.2095 41.1812 43.1135 41.5564C43.0176 41.9317 42.8222 42.2741 42.548 42.5477C42.2737 42.8212 41.9308 43.0157 41.5553 43.1107C41.1804 43.2067 40.7867 43.2 40.4153 43.0913C40.044 42.9825 39.7088 42.7757 39.445 42.4925L30.705 33.7525ZM33.0625 20.125C33.0881 18.4104 32.7725 16.7078 32.134 15.1163C31.4955 13.5247 30.5469 12.076 29.3434 10.8545C28.1399 9.63289 26.7055 8.66283 25.1237 8.00069C23.5419 7.33855 21.8442 6.99757 20.1293 6.99757C18.4145 6.99757 16.7168 7.33855 15.135 8.00069C13.5531 8.66283 12.1187 9.63289 10.9153 10.8545C9.71176 12.076 8.76318 13.5247 8.1247 15.1163C7.48622 16.7078 7.17059 18.4104 7.19615 20.125C7.2468 23.5217 8.63168 26.7622 11.0516 29.1463C13.4715 31.5304 16.7323 32.8668 20.1293 32.8668C23.5264 32.8668 26.7871 31.5304 29.2071 29.1463C31.627 26.7622 33.0119 23.5217 33.0625 20.125Z" fill="#374D67"/>
<path d="M15 23H17C17 24.08 18.37 25 20 25C21.63 25 23 24.08 23 23C23 21.9 21.96 21.5 19.76 20.97C17.64 20.44 15 19.78 15 17C15 15.21 16.47 13.69 18.5 13.18V11H21.5V13.18C23.53 13.69 25 15.21 25 17H23C23 15.92 21.63 15 20 15C18.37 15 17 15.92 17 17C17 18.1 18.04 18.5 20.24 19.03C22.36 19.56 25 20.22 25 23C25 24.79 23.53 26.31 21.5 26.82V29H18.5V26.82C16.47 26.31 15 24.79 15 23Z" fill="#374D67"/>
</svg>
