<svg width="46" height="46" viewBox="0 0 46 46" fill="none" xmlns="http://www.w3.org/2000/svg">
<path d="M13.4167 21.0832V36.4165C13.4167 36.9248 13.2147 37.4123 12.8553 37.7718C12.4958 38.1312 12.0083 38.3332 11.5 38.3332H7.66667C7.15834 38.3332 6.67082 38.1312 6.31138 37.7718C5.95193 37.4123 5.75 36.9248 5.75 36.4165V22.9998C5.75 22.4915 5.95193 22.004 6.31138 21.6445C6.67082 21.2851 7.15834 21.0832 7.66667 21.0832H13.4167ZM13.4167 21.0832C15.45 21.0832 17.4 20.2754 18.8378 18.8377C20.2756 17.3999 21.0833 15.4498 21.0833 13.4165V11.4998C21.0833 10.4832 21.4872 9.50815 22.2061 8.78926C22.925 8.07037 23.9 7.6665 24.9167 7.6665C25.9333 7.6665 26.9084 8.07037 27.6272 8.78926C28.3461 9.50815 28.75 10.4832 28.75 11.4998V21.0832H34.5C35.5167 21.0832 36.4917 21.487 37.2106 22.2059C37.9295 22.9248 38.3333 23.8998 38.3333 24.9165L36.4167 34.4998C36.141 35.6757 35.6181 36.6853 34.9267 37.3767C34.2354 38.0681 33.4129 38.4037 32.5833 38.3332H19.1667C17.6417 38.3332 16.1791 37.7274 15.1008 36.649C14.0225 35.5707 13.4167 34.1082 13.4167 32.5832" stroke="#374D67" stroke-width="3.91667" stroke-linecap="round" stroke-linejoin="round"/>
</svg>
