<svg width="46" height="46" viewBox="0 0 46 46" fill="none" xmlns="http://www.w3.org/2000/svg">
<path d="M5.75 9.58333C5.75 8.56667 6.15387 7.59165 6.87276 6.87276C7.59165 6.15387 8.56667 5.75 9.58333 5.75H36.4167C37.4333 5.75 38.4084 6.15387 39.1272 6.87276C39.8461 7.59165 40.25 8.56667 40.25 9.58333V36.4167C40.25 37.4333 39.8461 38.4084 39.1272 39.1272C38.4084 39.8461 37.4333 40.25 36.4167 40.25H9.58333C8.56667 40.25 7.59165 39.8461 6.87276 39.1272C6.15387 38.4084 5.75 37.4333 5.75 36.4167V9.58333ZM9.58333 9.58333V36.4167H36.4167V9.58333H9.58333ZM21.0833 13.4167H24.9167C25.9333 13.4167 26.9084 13.8205 27.6272 14.5394C28.3461 15.2583 28.75 16.2333 28.75 17.25V32.5833H24.9167V24.9167H21.0833V32.5833H17.25V17.25C17.25 16.2333 17.6539 15.2583 18.3728 14.5394C19.0916 13.8205 20.0667 13.4167 21.0833 13.4167ZM21.0833 17.25V21.0833H24.9167V17.25H21.0833Z" fill="#374D67"/>
</svg>
