<svg width="46" height="46" viewBox="0 0 46 46" fill="none" xmlns="http://www.w3.org/2000/svg">
<path d="M36.4167 19.1667L23 5.75L5.75 23H9.58333V36.4167C9.58333 37.4333 9.9872 38.4084 10.7061 39.1272C11.425 39.8461 12.4 40.25 13.4167 40.25H24.9167" stroke="#374D67" stroke-width="3.66667" stroke-linecap="round" stroke-linejoin="round"/>
<path d="M17.25 40.2498V28.7498C17.25 27.7332 17.6539 26.7582 18.3728 26.0393C19.0916 25.3204 20.0667 24.9165 21.0833 24.9165H24.9167C25.6584 24.9165 26.3503 25.1273 26.9368 25.4915M40.25 28.7498H35.4583C34.6958 28.7498 33.9646 29.0527 33.4254 29.5919C32.8862 30.1311 32.5833 30.8623 32.5833 31.6248C32.5833 32.3873 32.8862 33.1186 33.4254 33.6578C33.9646 34.1969 34.6958 34.4998 35.4583 34.4998H37.375C38.1375 34.4998 38.8688 34.8027 39.4079 35.3419C39.9471 35.8811 40.25 36.6123 40.25 37.3748C40.25 38.1373 39.9471 38.8686 39.4079 39.4078C38.8688 39.9469 38.1375 40.2498 37.375 40.2498H32.5833M36.4167 40.2498V42.1665M36.4167 26.8332V28.7498" stroke="#374D67" stroke-width="3.66667" stroke-linecap="round" stroke-linejoin="round"/>
</svg>
